<!DOCTYPE svg PUBLIC "-//W3C//DTD SVG 1.1//EN" "http://www.w3.org/Graphics/SVG/1.1/DTD/svg11.dtd">
<!-- Uploaded to: SVG Repo, www.svgrepo.com, Transformed by: SVG Repo Mixer Tools -->
<svg fill="#fff" width="800px" height="800px" viewBox="0 0 128 128" id="Layer_1" version="1.1" xml:space="preserve" xmlns="http://www.w3.org/2000/svg" xmlns:xlink="http://www.w3.org/1999/xlink" stroke="#fff">
<g id="SVGRepo_bgCarrier" stroke-width="0"/>
<g id="SVGRepo_tracerCarrier" stroke-linecap="round" stroke-linejoin="round"/>
<g id="SVGRepo_iconCarrier"> <g> <path d="M30,49c0,18.7,15.3,34,34,34s34-15.3,34-34S82.7,15,64,15S30,30.3,30,49z M90,49c0,14.3-11.7,26-26,26S38,63.3,38,49 s11.7-26,26-26S90,34.7,90,49z"/> <path d="M24.4,119.4C35,108.8,49,103,64,103s29,5.8,39.6,16.4l5.7-5.7C97.2,101.7,81.1,95,64,95s-33.2,6.7-45.3,18.7L24.4,119.4z"/> </g> </g>
</svg>