<svg xmlns="http://www.w3.org/2000/svg" width="512" height="512" viewBox="0 0 512.0 512.0"><g id="glass"><path id="1" d="M 412.750,447.505 C 412.131,447.392 410.725,447.136 409.625,446.938 C 408.525,446.740 407.006,446.377 406.250,446.131 C 405.016,445.731 404.446,445.501 402.250,444.519 C 401.906,444.366 401.175,443.966 400.625,443.632 C 400.075,443.298 399.456,442.943 399.250,442.844 C 397.232,441.874 391.609,436.405 353.875,398.709 C 320.070,364.938 312.507,357.500 311.971,357.500 C 311.412,357.500 310.526,357.995 307.602,359.942 C 307.339,360.117 306.788,360.431 306.375,360.639 C 305.962,360.848 305.119,361.348 304.500,361.750 C 303.881,362.152 303.038,362.652 302.625,362.861 C 302.212,363.069 301.706,363.347 301.500,363.477 C 301.294,363.607 300.956,363.784 300.750,363.869 C 300.544,363.954 299.925,364.298 299.375,364.632 C 298.825,364.966 298.094,365.367 297.750,365.522 C 297.406,365.677 296.956,365.900 296.750,366.018 C 296.544,366.136 295.644,366.585 294.750,367.015 C 293.856,367.446 292.956,367.901 292.750,368.026 C 292.544,368.151 292.094,368.376 291.750,368.526 C 290.209,369.199 288.803,369.847 287.950,370.281 C 287.442,370.539 286.892,370.750 286.728,370.750 C 286.564,370.750 285.911,370.987 285.277,371.277 C 283.127,372.261 282.127,372.688 281.312,372.969 C 279.425,373.622 278.816,373.841 277.750,374.250 C 275.792,375.002 274.913,375.298 273.500,375.680 C 272.744,375.885 272.005,376.150 271.858,376.269 C 271.711,376.388 270.999,376.613 270.276,376.768 C 269.553,376.923 268.661,377.207 268.293,377.398 C 267.926,377.590 267.344,377.748 267,377.748 C 266.656,377.749 265.700,377.970 264.875,378.238 C 262.387,379.049 260.456,379.532 258.875,379.739 C 258.050,379.847 256.812,380.106 256.125,380.316 C 255.438,380.526 254.031,380.819 253,380.969 C 251.969,381.119 250.562,381.350 249.875,381.483 C 249.188,381.616 247.725,381.842 246.625,381.984 C 245.525,382.127 243.894,382.354 243,382.489 C 241.200,382.761 236.773,383.116 229.722,383.554 C 226.171,383.775 223.686,383.773 219.222,383.546 C 212.569,383.208 207.973,382.859 205.250,382.485 C 204.219,382.343 202.419,382.115 201.250,381.976 C 200.081,381.839 198.157,381.506 196.974,381.238 C 195.791,380.969 194.371,380.750 193.819,380.750 C 193.267,380.750 192.111,380.525 191.250,380.250 C 190.389,379.975 189.442,379.750 189.146,379.750 C 188.850,379.750 187.968,379.525 187.185,379.250 C 186.403,378.975 185.360,378.750 184.869,378.750 C 184.377,378.750 183.671,378.595 183.300,378.406 C 182.929,378.216 182.014,377.932 181.267,377.773 C 180.520,377.615 179.778,377.377 179.617,377.243 C 179.456,377.110 178.774,376.928 178.100,376.840 C 177.426,376.751 176.458,376.470 175.947,376.214 C 175.437,375.959 174.785,375.750 174.498,375.750 C 174.210,375.750 173.630,375.571 173.208,375.353 C 172.786,375.135 171.919,374.810 171.282,374.631 C 169.572,374.151 168.486,373.752 167.451,373.223 C 166.942,372.963 166.323,372.749 166.076,372.748 C 165.828,372.747 165.287,372.523 164.875,372.250 C 164.463,371.977 163.917,371.753 163.663,371.752 C 163.410,371.751 162.904,371.592 162.538,371.399 C 162.173,371.205 161.200,370.744 160.375,370.373 C 157.293,368.988 156.793,368.752 153.250,367.008 C 149.309,365.069 149.116,364.971 148.375,364.534 C 148.100,364.373 147.537,364.074 147.125,363.870 C 146.713,363.667 145.964,363.247 145.461,362.938 C 143.465,361.710 141.747,360.750 140.209,359.750 C 140.091,359.750 139.427,359.351 138.734,358.864 C 138.040,358.376 137.226,357.868 136.924,357.734 C 136.622,357.601 135.363,356.765 134.125,355.878 C 132.887,354.991 131.108,353.736 130.171,353.088 C 129.234,352.441 128.222,351.652 127.921,351.335 C 127.621,351.018 127.287,350.757 127.180,350.754 C 126.757,350.745 120.165,345.255 116.375,341.756 C 109.984,335.857 104.820,330.405 100.267,324.750 C 97.089,320.802 94.250,317.070 94.250,316.840 C 94.250,316.760 93.800,316.157 93.250,315.500 C 92.700,314.843 92.250,314.232 92.250,314.142 C 92.250,314.052 91.820,313.393 91.296,312.677 C 90.770,311.961 90.263,311.206 90.166,311 C 90.070,310.794 89.659,310.119 89.251,309.500 C 88.844,308.881 88.402,308.133 88.270,307.837 C 88.139,307.541 87.910,307.224 87.762,307.132 C 87.614,307.041 87.325,306.608 87.120,306.171 C 86.914,305.733 86.472,304.925 86.136,304.375 C 85.800,303.825 85.409,303.150 85.267,302.875 C 85.125,302.600 84.733,301.925 84.396,301.375 C 83.477,299.875 79.140,291.080 77.616,287.625 C 77.252,286.800 76.796,285.827 76.602,285.462 C 76.409,285.096 76.249,284.590 76.248,284.337 C 76.247,284.083 76.023,283.538 75.750,283.125 C 75.477,282.712 75.253,282.204 75.252,281.996 C 75.251,281.788 75.025,281.198 74.750,280.685 C 74.475,280.172 74.250,279.578 74.250,279.366 C 74.250,279.154 74.025,278.539 73.750,278 C 73.475,277.461 73.250,276.786 73.250,276.500 C 73.250,276.214 73.025,275.539 72.750,275 C 72.475,274.461 72.250,273.786 72.250,273.500 C 72.250,273.214 72.025,272.539 71.750,272 C 71.475,271.461 71.249,270.706 71.249,270.322 C 71.248,269.939 71.070,269.288 70.855,268.875 C 70.639,268.462 70.348,267.509 70.208,266.755 C 70.068,266.002 69.795,265.079 69.602,264.705 C 69.408,264.331 69.250,263.679 69.250,263.256 C 69.250,262.834 69.025,261.848 68.750,261.065 C 68.475,260.283 68.250,259.344 68.250,258.979 C 68.250,258.614 68.025,257.611 67.750,256.750 C 67.475,255.889 67.250,254.714 67.250,254.138 C 67.250,253.562 67.028,252.255 66.756,251.233 C 66.484,250.211 66.259,248.930 66.256,248.387 C 66.253,247.844 66.033,246.100 65.767,244.512 C 65.249,241.413 64.908,237.426 64.455,229.188 C 64.078,222.326 64.685,210.393 65.761,203.495 C 66.030,201.774 66.250,199.904 66.250,199.339 C 66.250,198.775 66.419,197.833 66.626,197.245 C 66.834,196.659 67.075,195.379 67.163,194.401 C 67.251,193.424 67.531,191.964 67.786,191.155 C 68.041,190.346 68.250,189.380 68.250,189.006 C 68.250,188.633 68.475,187.674 68.750,186.875 C 69.025,186.076 69.250,185.130 69.250,184.773 C 69.250,184.417 69.475,183.533 69.750,182.810 C 70.025,182.087 70.251,181.243 70.251,180.935 C 70.252,180.627 70.431,180.037 70.648,179.625 C 70.865,179.213 71.137,178.369 71.251,177.750 C 71.481,176.501 72.076,174.681 72.784,173.056 C 73.040,172.468 73.250,171.760 73.250,171.483 C 73.250,171.207 73.475,170.539 73.750,170 C 74.025,169.461 74.250,168.846 74.250,168.634 C 74.250,168.422 74.475,167.828 74.750,167.315 C 75.025,166.802 75.251,166.212 75.252,166.004 C 75.253,165.796 75.477,165.287 75.750,164.875 C 76.023,164.463 76.247,163.917 76.248,163.663 C 76.249,163.410 76.409,162.904 76.602,162.538 C 76.796,162.173 77.252,161.200 77.616,160.375 C 79.007,157.222 83.355,148.373 84.371,146.625 C 85.320,144.995 85.787,144.176 86.298,143.250 C 87.168,141.671 87.390,141.309 87.750,140.875 C 87.945,140.639 88.222,140.249 88.365,140.007 C 88.508,139.766 88.881,139.131 89.195,138.596 C 89.891,137.409 90.381,136.653 91.438,135.139 C 91.885,134.499 92.250,133.912 92.250,133.835 C 92.250,133.757 92.672,133.172 93.188,132.534 C 93.703,131.895 94.237,131.192 94.375,130.971 C 95.620,128.972 101.519,121.551 104.485,118.251 C 107.250,115.175 110.811,111.468 112.739,109.656 C 113.490,108.951 114.502,107.981 114.990,107.500 C 118.598,103.939 127.956,96.254 130.971,94.375 C 131.192,94.237 131.895,93.703 132.534,93.188 C 133.172,92.672 133.768,92.250 133.858,92.250 C 133.948,92.250 134.631,91.800 135.375,91.250 C 136.119,90.700 136.818,90.250 136.927,90.250 C 137.036,90.249 137.773,89.799 138.565,89.250 C 139.357,88.700 140.103,88.250 140.222,88.250 C 140.341,88.250 140.584,88.075 140.762,87.861 C 140.940,87.646 141.431,87.308 141.855,87.109 C 142.279,86.909 143.075,86.472 143.625,86.136 C 144.175,85.800 144.850,85.409 145.125,85.267 C 145.400,85.125 146.075,84.733 146.625,84.396 C 148.125,83.477 156.920,79.140 160.375,77.616 C 161.200,77.252 162.173,76.796 162.538,76.602 C 162.904,76.409 163.410,76.249 163.663,76.248 C 163.917,76.247 164.463,76.023 164.875,75.750 C 165.287,75.477 165.850,75.252 166.125,75.250 C 166.400,75.248 166.963,75.023 167.375,74.750 C 167.787,74.477 168.327,74.253 168.572,74.252 C 168.819,74.251 169.461,74.025 170,73.750 C 170.539,73.475 171.207,73.250 171.483,73.250 C 171.760,73.250 172.468,73.040 173.056,72.784 C 174.708,72.064 176.510,71.480 177.788,71.248 C 178.429,71.132 179.294,70.861 179.714,70.644 C 180.132,70.427 180.705,70.250 180.985,70.250 C 181.265,70.250 182.087,70.025 182.810,69.750 C 183.533,69.475 184.463,69.246 184.875,69.242 C 185.287,69.237 186.244,69.016 187,68.750 C 187.756,68.484 188.670,68.263 189.030,68.258 C 189.390,68.254 190.389,68.025 191.250,67.750 C 192.111,67.475 193.337,67.250 193.975,67.250 C 194.613,67.250 195.947,67.025 196.939,66.750 C 197.931,66.475 199.111,66.252 199.559,66.255 C 200.008,66.257 201.838,66.034 203.625,65.760 C 206.859,65.262 210.249,64.955 217.875,64.469 C 222.148,64.197 231.815,64.368 234.500,64.764 C 235.394,64.896 237.812,65.112 239.875,65.244 C 241.938,65.376 244.019,65.597 244.500,65.736 C 244.981,65.874 246.639,66.099 248.185,66.234 C 249.731,66.369 251.209,66.594 251.470,66.734 C 251.732,66.874 252.886,67.101 254.035,67.239 C 255.185,67.376 256.575,67.655 257.125,67.858 C 257.675,68.062 258.550,68.233 259.070,68.239 C 259.591,68.245 260.422,68.419 260.918,68.627 C 261.415,68.835 262.396,69.108 263.098,69.234 C 263.800,69.360 264.881,69.627 265.500,69.826 C 266.563,70.169 267.024,70.298 269.750,71.011 C 270.369,71.173 271.356,71.518 271.944,71.778 C 272.532,72.037 273.264,72.254 273.569,72.258 C 273.875,72.263 274.575,72.484 275.125,72.750 C 275.675,73.016 276.327,73.237 276.572,73.242 C 276.818,73.246 277.461,73.475 278,73.750 C 278.539,74.025 279.150,74.250 279.358,74.250 C 279.566,74.250 280.218,74.463 280.806,74.724 C 281.394,74.984 282.494,75.448 283.250,75.754 C 284.006,76.059 285.087,76.522 285.652,76.780 C 286.217,77.038 286.795,77.250 286.935,77.250 C 287.075,77.250 288.132,77.709 289.283,78.270 C 290.433,78.831 291.881,79.520 292.500,79.801 C 293.776,80.380 294.114,80.549 297.750,82.432 C 299.194,83.180 300.825,84.055 301.375,84.379 C 301.925,84.701 302.712,85.143 303.125,85.359 C 303.538,85.576 304.325,86.028 304.875,86.364 C 305.425,86.700 306.117,87.086 307.837,88.270 C 308.133,88.402 308.881,88.844 309.500,89.251 C 310.119,89.659 310.794,90.070 311,90.166 C 311.206,90.263 311.961,90.770 312.677,91.296 C 313.393,91.820 314.060,92.250 314.161,92.250 C 314.261,92.250 314.575,92.461 314.859,92.719 C 315.143,92.976 316.163,93.728 317.125,94.390 C 319.702,96.161 326.735,101.778 329.750,104.472 C 337.834,111.697 345.270,119.790 352.202,128.911 C 353.053,130.030 353.750,131.028 353.750,131.126 C 353.750,131.225 354.200,131.843 354.750,132.500 C 355.300,133.157 355.750,133.768 355.750,133.858 C 355.750,133.948 356.180,134.607 356.704,135.323 C 357.229,136.039 357.738,136.794 357.834,137 C 357.930,137.206 358.341,137.881 358.749,138.500 C 359.156,139.119 359.598,139.867 359.729,140.163 C 359.861,140.459 360.090,140.776 360.238,140.868 C 360.386,140.959 360.675,141.392 360.880,141.829 C 361.086,142.267 361.523,143.075 361.853,143.625 C 362.183,144.175 362.614,144.906 362.811,145.250 C 363.007,145.594 363.401,146.281 363.686,146.778 C 363.970,147.275 364.344,147.950 364.515,148.278 C 364.687,148.607 364.917,149.044 365.026,149.250 C 366.085,151.252 369.356,158.045 370.384,160.375 C 370.748,161.200 371.204,162.173 371.398,162.538 C 371.591,162.904 371.751,163.410 371.752,163.663 C 371.753,163.917 371.977,164.463 372.250,164.875 C 372.523,165.287 372.748,165.850 372.750,166.125 C 372.752,166.400 372.977,166.963 373.250,167.375 C 373.523,167.787 373.747,168.327 373.748,168.572 C 373.749,168.819 373.975,169.461 374.250,170 C 374.525,170.539 374.750,171.214 374.750,171.500 C 374.750,171.786 374.975,172.461 375.250,173 C 375.525,173.539 375.750,174.214 375.750,174.500 C 375.750,174.786 375.975,175.461 376.250,176 C 376.525,176.539 376.752,177.294 376.755,177.678 C 376.759,178.061 376.983,178.865 377.255,179.465 C 377.527,180.064 377.752,180.852 377.755,181.215 C 377.759,181.578 377.983,182.365 378.255,182.965 C 378.527,183.564 378.750,184.382 378.750,184.784 C 378.750,185.185 378.975,186.153 379.250,186.935 C 379.525,187.718 379.750,188.656 379.750,189.021 C 379.750,189.386 379.975,190.389 380.250,191.250 C 380.525,192.111 380.750,193.267 380.750,193.819 C 380.750,194.371 380.969,195.791 381.238,196.974 C 381.506,198.157 381.837,200.081 381.973,201.250 C 382.109,202.419 382.335,204.162 382.475,205.125 C 382.745,206.984 383.096,211.260 383.531,218 C 383.845,222.850 383.661,230.987 383.131,235.750 C 382.925,237.606 382.754,239.800 382.752,240.625 C 382.750,241.450 382.524,243.282 382.249,244.696 C 381.975,246.111 381.750,247.750 381.750,248.339 C 381.750,248.928 381.587,249.964 381.387,250.642 C 381.188,251.320 380.908,252.775 380.766,253.875 C 380.624,254.975 380.342,256.325 380.140,256.875 C 379.938,257.425 379.767,258.273 379.761,258.759 C 379.755,259.245 379.525,260.283 379.250,261.065 C 378.975,261.848 378.750,262.767 378.750,263.110 C 378.750,263.452 378.525,264.302 378.250,265 C 377.975,265.698 377.750,266.533 377.750,266.857 C 377.750,267.181 377.527,267.936 377.255,268.535 C 376.983,269.135 376.759,269.889 376.755,270.212 C 376.752,270.535 376.582,271.154 376.377,271.587 C 376.171,272.021 375.847,272.938 375.655,273.625 C 375.218,275.194 374.817,276.329 374.219,277.694 C 373.961,278.282 373.750,278.930 373.750,279.132 C 373.750,279.336 373.525,279.922 373.250,280.435 C 372.975,280.948 372.750,281.572 372.750,281.822 C 372.750,282.072 372.536,282.692 372.274,283.200 C 371.449,284.800 370.750,286.418 370.750,286.728 C 370.750,286.892 370.539,287.442 370.281,287.950 C 369.847,288.803 369.199,290.209 368.526,291.750 C 368.376,292.094 368.152,292.544 368.029,292.750 C 367.905,292.956 367.680,293.406 367.529,293.750 C 367.377,294.094 367.152,294.544 367.029,294.750 C 366.905,294.956 366.680,295.406 366.529,295.750 C 366.257,296.366 366.112,296.640 365.536,297.625 C 365.375,297.900 365.022,298.575 364.750,299.125 C 364.478,299.675 364.125,300.350 363.964,300.625 C 363.803,300.900 363.580,301.294 363.469,301.500 C 363.171,302.052 361.212,305.414 360.575,306.466 C 360.272,306.966 359.940,307.544 359.836,307.750 C 359.733,307.956 359.306,308.613 358.887,309.209 C 357.745,310.835 357.508,311.314 357.504,312 C 357.501,312.500 365.782,320.913 398.721,353.875 C 440.294,395.477 441.904,397.153 443.634,400.625 C 443.839,401.038 444.108,401.544 444.232,401.750 C 445.320,403.570 446.510,407.205 447.177,410.750 C 447.981,415.017 447.623,421.053 446.348,424.750 C 446.134,425.369 445.903,426.156 445.834,426.500 C 445.716,427.084 443.614,431.518 442.932,432.620 C 440.471,436.597 436.465,440.600 432.625,442.921 C 431.179,443.795 426.904,445.724 425.375,446.192 C 421.449,447.394 415.501,448.012 412.750,447.505M 236.500,335.656 C 237.394,335.442 238.751,335.264 239.517,335.259 C 240.282,335.254 241.745,335.028 242.767,334.756 C 243.789,334.484 245.037,334.259 245.540,334.256 C 246.043,334.253 247.168,334.026 248.040,333.753 C 248.912,333.480 249.906,333.255 250.250,333.253 C 250.594,333.252 251.578,333.025 252.438,332.750 C 253.297,332.475 254.703,332.025 255.562,331.750 C 256.422,331.475 257.327,331.250 257.572,331.250 C 257.818,331.250 258.461,331.025 259,330.750 C 259.539,330.475 260.182,330.246 260.428,330.241 C 260.673,330.237 261.325,330.016 261.875,329.750 C 262.425,329.484 263.046,329.263 263.254,329.259 C 263.462,329.254 264.052,329.025 264.565,328.750 C 265.078,328.475 265.639,328.250 265.812,328.251 C 265.984,328.251 266.575,328.036 267.125,327.773 C 267.675,327.510 268.744,327.016 269.500,326.675 C 273.001,325.097 276.760,323.175 280.125,321.245 C 280.675,320.930 281.350,320.548 281.625,320.398 C 281.900,320.247 282.755,319.702 283.526,319.187 C 284.296,318.672 285.003,318.250 285.096,318.250 C 285.189,318.250 285.812,317.828 286.482,317.312 C 287.152,316.797 288.334,315.944 289.108,315.417 C 292.918,312.825 298.467,308.060 303.265,303.264 C 309.043,297.487 313.239,292.416 317.448,286.125 C 319.998,282.315 320.439,281.608 321.351,279.875 C 321.569,279.462 322.196,278.337 322.745,277.375 C 323.743,275.628 325.503,272.100 326.675,269.500 C 327.016,268.744 327.510,267.675 327.773,267.125 C 328.036,266.575 328.251,265.984 328.251,265.812 C 328.250,265.639 328.475,265.078 328.750,264.565 C 329.025,264.052 329.254,263.462 329.259,263.254 C 329.263,263.046 329.484,262.425 329.750,261.875 C 330.016,261.325 330.237,260.673 330.241,260.428 C 330.246,260.182 330.475,259.539 330.750,259 C 331.025,258.461 331.250,257.818 331.250,257.572 C 331.250,257.327 331.475,256.422 331.750,255.562 C 332.025,254.703 332.475,253.297 332.750,252.438 C 333.025,251.578 333.252,250.594 333.253,250.250 C 333.255,249.906 333.480,248.912 333.753,248.040 C 334.026,247.168 334.253,246.043 334.256,245.540 C 334.259,245.037 334.484,243.789 334.756,242.767 C 335.028,241.745 335.250,240.323 335.250,239.606 C 335.250,238.890 335.447,237.419 335.688,236.339 C 336.065,234.642 336.125,232.966 336.125,224 C 336.125,215.034 336.065,213.358 335.688,211.661 C 335.447,210.581 335.250,209.110 335.250,208.394 C 335.250,207.677 335.028,206.255 334.756,205.233 C 334.484,204.211 334.259,202.963 334.256,202.460 C 334.253,201.957 334.026,200.832 333.753,199.960 C 333.480,199.088 333.255,198.094 333.253,197.750 C 333.252,197.406 333.025,196.422 332.750,195.562 C 332.475,194.703 332.025,193.297 331.750,192.438 C 331.475,191.578 331.250,190.673 331.250,190.428 C 331.250,190.181 331.025,189.539 330.750,189 C 330.475,188.461 330.246,187.819 330.241,187.572 C 330.237,187.327 330.016,186.675 329.750,186.125 C 329.484,185.575 329.263,184.954 329.259,184.746 C 329.254,184.538 329.025,183.948 328.750,183.435 C 328.475,182.922 328.250,182.361 328.251,182.189 C 328.251,182.016 328.036,181.425 327.773,180.875 C 327.510,180.325 327.017,179.256 326.679,178.500 C 325.853,176.657 322.827,170.579 322.228,169.562 C 321.966,169.116 321.526,168.384 321.252,167.938 C 320.978,167.491 320.613,166.844 320.440,166.500 C 320.117,165.858 318.644,163.555 317.193,161.422 C 315.789,159.356 311.700,153.920 310,151.858 C 306.998,148.217 300.019,141.170 297.125,138.857 C 296.300,138.197 295.166,137.256 294.604,136.766 C 292.930,135.304 292.145,134.701 289.876,133.125 C 288.688,132.300 287.164,131.203 286.490,130.688 C 285.816,130.172 285.189,129.750 285.096,129.750 C 285.003,129.750 284.296,129.328 283.526,128.812 C 281.851,127.692 281.363,127.390 280.375,126.865 C 279.962,126.645 279.175,126.202 278.625,125.880 C 277.545,125.248 271.087,122.018 269.250,121.191 C 268.631,120.912 267.709,120.474 267.200,120.217 C 266.692,119.960 266.091,119.750 265.864,119.750 C 265.637,119.750 265.154,119.583 264.788,119.379 C 264.021,118.948 262.903,118.542 258.312,117.022 C 257.935,116.897 256.781,116.551 255.750,116.254 C 254.719,115.956 253.200,115.496 252.375,115.231 C 251.550,114.966 250.594,114.749 250.250,114.747 C 249.906,114.745 248.912,114.520 248.040,114.247 C 247.168,113.974 246.100,113.748 245.665,113.746 C 245.231,113.743 244.031,113.520 243,113.250 C 241.969,112.980 240.472,112.757 239.674,112.754 C 238.876,112.752 237.414,112.553 236.424,112.312 C 234.855,111.931 233.267,111.875 224,111.875 C 214.733,111.875 213.145,111.931 211.576,112.312 C 210.586,112.553 209.124,112.752 208.326,112.754 C 207.528,112.757 206.031,112.980 205,113.250 C 203.969,113.520 202.769,113.743 202.335,113.746 C 201.900,113.748 200.832,113.974 199.960,114.247 C 199.088,114.520 198.094,114.745 197.750,114.747 C 197.406,114.749 196.450,114.966 195.625,115.231 C 194.800,115.496 193.281,115.956 192.250,116.254 C 191.219,116.551 190.066,116.897 189.688,117.022 C 185.097,118.542 183.980,118.948 183.212,119.379 C 182.846,119.583 182.363,119.750 182.136,119.750 C 181.910,119.750 181.308,119.971 180.799,120.240 C 180.291,120.510 179.369,120.949 178.750,121.215 C 176.981,121.977 170.455,125.232 169.625,125.767 C 169.213,126.034 168.537,126.429 168.125,126.647 C 166.664,127.419 165.858,127.894 164.375,128.854 C 163.550,129.388 162.425,130.116 161.875,130.470 C 160.219,131.537 154.227,136.012 152.647,137.362 C 144.691,144.162 137.524,151.784 133.125,158.123 C 132.300,159.312 131.203,160.836 130.688,161.510 C 130.172,162.184 129.750,162.811 129.750,162.904 C 129.750,162.997 129.328,163.703 128.813,164.474 C 128.298,165.244 127.753,166.100 127.602,166.375 C 127.263,166.995 126.326,168.626 125.736,169.625 C 125.168,170.587 122.125,176.704 121.322,178.500 C 120.984,179.256 120.491,180.291 120.228,180.799 C 119.965,181.308 119.750,181.910 119.750,182.136 C 119.750,182.363 119.583,182.846 119.379,183.212 C 118.886,184.091 118.293,185.770 116.276,192 C 115.987,192.894 115.749,193.850 115.749,194.125 C 115.748,194.400 115.574,194.958 115.362,195.364 C 115.150,195.770 114.913,196.614 114.837,197.239 C 114.760,197.864 114.484,199.090 114.224,199.964 C 113.963,200.838 113.748,201.906 113.746,202.339 C 113.743,202.771 113.520,203.969 113.250,205 C 112.980,206.031 112.757,207.510 112.754,208.286 C 112.752,209.062 112.553,210.581 112.312,211.661 C 111.934,213.358 111.875,215.034 111.875,224 C 111.875,232.966 111.934,234.642 112.312,236.339 C 112.553,237.419 112.751,238.882 112.752,239.589 C 112.753,240.297 112.978,241.810 113.252,242.953 C 113.526,244.096 113.750,245.352 113.750,245.744 C 113.750,246.135 113.974,247.168 114.247,248.040 C 114.520,248.912 114.745,249.906 114.747,250.250 C 114.749,250.594 114.975,251.578 115.250,252.438 C 115.525,253.297 115.975,254.703 116.250,255.562 C 116.525,256.422 116.750,257.327 116.750,257.575 C 116.750,257.822 116.929,258.370 117.147,258.792 C 117.365,259.214 117.692,260.081 117.874,260.717 C 118.357,262.414 118.956,264.034 119.379,264.788 C 119.583,265.154 119.750,265.637 119.750,265.864 C 119.750,266.091 119.965,266.692 120.228,267.200 C 120.491,267.709 120.984,268.744 121.325,269.500 C 122.247,271.552 125.204,277.498 125.799,278.500 C 126.085,278.981 126.528,279.712 126.783,280.125 C 127.038,280.538 127.388,281.156 127.561,281.500 C 128.256,282.882 130.968,286.904 133.584,290.432 C 141.729,301.416 153.102,312.120 163.272,318.375 C 163.495,318.512 164.173,318.958 164.777,319.365 C 165.886,320.113 166.753,320.628 168.125,321.353 C 168.537,321.571 169.213,321.976 169.625,322.252 C 170.037,322.529 170.588,322.828 170.849,322.917 C 171.110,323.005 172.010,323.454 172.849,323.913 C 174.782,324.972 176.326,325.714 179,326.869 C 180.169,327.374 181.232,327.891 181.363,328.019 C 181.493,328.146 181.831,328.251 182.113,328.252 C 182.394,328.252 182.923,328.409 183.288,328.599 C 183.653,328.789 184.367,329.082 184.875,329.250 C 185.383,329.418 186.097,329.711 186.462,329.901 C 186.827,330.091 187.327,330.248 187.572,330.248 C 187.819,330.249 188.461,330.475 189,330.750 C 189.539,331.025 190.181,331.250 190.428,331.250 C 190.673,331.250 191.606,331.485 192.500,331.772 C 196.620,333.097 197.163,333.250 197.750,333.253 C 198.094,333.255 199.088,333.480 199.960,333.753 C 200.832,334.026 201.957,334.253 202.460,334.256 C 202.963,334.259 204.211,334.484 205.233,334.756 C 206.255,335.028 207.718,335.253 208.483,335.256 C 209.249,335.259 210.381,335.384 211,335.531 C 213.331,336.089 216.143,336.205 225.375,336.126 C 232.877,336.061 235.217,335.962 236.500,335.656" stroke="#000000" fill="#fff" stroke-width="1" />
</g></svg>